<svg xmlns:xlink="http://www.w3.org/1999/xlink" xmlns="http://www.w3.org/2000/svg" id="u5H4MqBTAy" height="120" width="200" viewBox="47 100 220 120"  style= "position: absolute; top: 0%; left: 0%; z-index: 0; cursor: pointer; overflow: visible;"><defs id="SvgjsDefs1094"></defs>


<g id="SvgjsG1096" featurekey="symbolFeature-0" transform="matrix(1.0989010989010988,0,0,1.0989010989010988,121,114)" fill="#00043C">
<path xmlns="http://www.w3.org/2000/svg" fill="#00043C" d="M300.414214,90 L312.707107,102.292893 C313.097631,102.683418 313.097631,103.316582 312.707107,103.707107 C312.316582,104.097631 311.683418,104.097631 311.292893,103.707107 L298.292893,90.7071068 C297.902369,90.3165825 297.902369,89.6834175 298.292893,89.2928932 L311.292893,76.2928932 C311.683418,75.9023689 312.316582,75.9023689 312.707107,76.2928932 C313.097631,76.6834175 313.097631,77.3165825 312.707107,77.7071068 L300.414214,90 Z M330,94 C327.790861,94 326,92.209139 326,90 C326,87.790861 327.790861,86 330,86 C332.209139,86 334,87.790861 334,90 C334,92.209139 332.209139,94 330,94 Z M330,92 C331.104569,92 332,91.1045695 332,90 C332,88.8954305 331.104569,88 330,88 C328.895431,88 328,88.8954305 328,90 C328,91.1045695 328.895431,92 330,92 Z M342,94 C339.790861,94 338,92.209139 338,90 C338,87.790861 339.790861,86 342,86 C344.209139,86 346,87.790861 346,90 C346,92.209139 344.209139,94 342,94 Z M342,92 C343.104569,92 344,91.1045695 344,90 C344,88.8954305 343.104569,88 342,88 C340.895431,88 340,88.8954305 340,90 C340,91.1045695 340.895431,92 342,92 Z M318,94 C315.790861,94 314,92.209139 314,90 C314,87.790861 315.790861,86 318,86 C320.209139,86 322,87.790861 322,90 C322,92.209139 320.209139,94 318,94 Z M318,92 C319.104569,92 320,91.1045695 320,90 C320,88.8954305 319.104569,88 318,88 C316.895431,88 316,88.8954305 316,90 C316,91.1045695 316.895431,92 318,92 Z M360.585786,90 L348.292893,77.7071068 C347.902369,77.3165825 347.902369,76.6834175 348.292893,76.2928932 C348.683418,75.9023689 349.316582,75.9023689 349.707107,76.2928932 L362.707107,89.2928932 C363.097631,89.6834175 363.097631,90.3165825 362.707107,90.7071068 L349.707107,103.707107 C349.316582,104.097631 348.683418,104.097631 348.292893,103.707107 C347.902369,103.316582 347.902369,102.683418 348.292893,102.292893 L360.585786,90 Z" transform="translate(-298 -76)"></path>
</g>

<g id="SvgjsG1097" featurekey="nameFeature-0" transform="matrix(0.9765044267599702,0,0,0.9765044267599702,55.49522268312084,156.52394314025236)" fill="#00043C">

<path d="M8.44 16 l3.6 -0.64 c0.04 -1.24 0.04 -2.88 -0.12 -4.12 c-5 0.12 -8.32 0.6 -9.6 0.8 c-0.24 1.16 -0.36 3.28 -0.32 4.72 l3.56 -0.4 c-0.32 6.8 -0.44 17.08 -0.16 23.4 c1.04 0 1.84 -0.12 2.48 -0.44 c-0.2 -5.8 -0.08 -16.88 0.56 -23.32 z M14.04 16.68 l-3.56 0.76 c-0.72 6.16 -1.16 17.16 -1.12 23.08 c-1.88 1.6 -4 1.64 -6.4 1.6 c-0.08 -6.84 0.4 -17.24 0.84 -23.52 l-3.2 0.48 c-0.24 -2.6 0.04 -6.76 0.84 -8.88 c0 0 4.56 -1.12 12.6 -1.52 c0.36 2.48 0.36 5.52 0 8 z M26.28 15.16 c0.04 -1 -0.04 -2.32 -0.24 -3.4 c-2.24 0 -5.8 0.16 -8.28 0.44 c-0.44 6.44 -0.8 18.96 -0.32 27.56 c3.32 0.2 6.52 -0.48 8.36 -1.2 c0.08 -0.96 0.04 -1.92 -0.08 -2.8 c-1.52 0.2 -3.88 0.4 -5.32 0.36 c-0.28 -2.2 -0.32 -5.2 -0.04 -7.6 l5.6 -2.04 c0.08 -0.8 0 -1.72 -0.12 -2.48 l-5.76 0.6 c-0.08 -3.24 0.24 -6.04 0.52 -8.44 c1.84 -0.48 4.2 -0.8 5.68 -1 z M28.28 16.56 c-1.76 0.24 -4.04 0.64 -5.6 1.04 c-0.2 1.36 -0.44 3.12 -0.52 4.72 l5.24 -0.72 c0.52 2 0.56 4.12 0.16 6.2 l-5.52 2.24 c-0.12 1.32 -0.2 3 -0.16 4.24 c1.32 -0.12 3.4 -0.44 5.04 -1 c0.36 2.56 0.48 4.28 0.12 6.76 c-2.68 1.32 -6.88 2.48 -11.92 2.08 c-0.32 -10.04 0.68 -24.44 1.44 -31.8 c3.56 -0.64 8.48 -1.04 11.52 -1.08 c0.56 2.4 0.56 5.08 0.2 7.32 z M39.599999999999994 38.96 c0.08 -1.2 -0.04 -2.56 -0.2 -3.72 c-2.88 0.4 -4.44 0 -4.84 -0.56 c-0.28 -0.4 -0.88 -4.48 -0.88 -8.64 c0 -4.12 0.44 -9 1.16 -9.92 c0.84 -1.12 2.68 -1.4 4.64 -1.2 c0.04 -1.12 0.08 -2.48 0 -3.52 c-3.88 -0.52 -5.64 -0.28 -6.28 0.28 c-1.2 1.04 -2.52 10.48 -2.4 14.44 c0.08 3.52 0.96 12.68 2.04 13.2 c0.92 0.44 3.88 0.32 6.76 -0.36 z M41.72 9.120000000000001 c0.2 2.28 0.08 5.16 -0.24 7.8 c-3.4 -0.6 -4.56 -0.08 -4.76 0.2 s-0.92 4.32 -1.08 8.92 c-0.16 3.64 0 6.88 0.24 7.2 c0.28 0.4 1.48 0.36 4.76 -0.36 c0.4 2.64 0.52 5.08 0.12 7.76 c-3.68 1.16 -7.6 1.72 -9.28 0.92 c-1.2 -0.56 -2.6 -11.08 -2.56 -15.16 c0.04 -3.72 1.52 -14.48 3.56 -16.4 c1.52 -1.4 4.48 -1.44 9.24 -0.88 z M55.67999999999999 38.68 c0.4 -6.32 0.44 -17.84 -0.08 -26.4 c-0.96 0.04 -2.08 0.2 -2.96 0.44 c0.16 2.28 0.36 7.48 0.12 9.36 c-0.16 1.28 -1.64 1.88 -2.4 2.04 c-1.44 0.32 -2.72 -0.32 -2.8 -1.28 c-0.2 -2.04 -0.16 -8.04 -0.08 -11.24 c-0.76 0 -1.64 0.12 -2.52 0.28 c-0.6 8.36 -0.44 21.24 -0.32 27.92 c1 0.04 2.04 -0.12 2.96 -0.4 c-0.04 -2.52 0 -4.76 0.08 -8.56 c0 -0.84 1.16 -1.76 2.52 -1.96 c1.48 -0.2 2.76 0.52 2.8 1.6 c0.08 1.76 0.24 6 0.16 8.36 c0.84 0 1.68 0 2.52 -0.16 z M57.879999999999995 9.879999999999999 c0.32 10.04 -0.24 23.16 -1 30.44 c-2.52 0.8 -3.88 0.72 -6.44 0.72 c0.4 -2.72 0.4 -7.4 0.36 -9.6 c0 -0.92 -1.24 -0.32 -1.28 0.36 c-0.24 4.2 -0.4 5.72 -0.44 9.28 c-2.24 1 -4.16 1.4 -6.84 1.08 c0.16 -7.56 0.44 -22.32 1.56 -32 c2.28 -0.64 4.08 -0.84 6.32 -0.72 c-0.24 3.68 -0.56 10.08 -0.44 12.36 c0.04 0.84 1.12 -0.08 1.2 -0.48 c0.32 -2 0.24 -8.2 0.08 -10.32 c1.96 -0.76 4.44 -1.36 6.92 -1.12 z M73.16 12.280000000000001 c-0.8 -0.04 -1.64 0.04 -2.52 0.32 c0.12 2.6 0.2 7.16 -0.24 10.84 c-0.12 1.16 -1.68 1.48 -2.08 0.44 c-1.56 -4.16 -3 -8.88 -4.24 -11.92 c-0.88 0.2 -1.76 0.44 -2.56 0.88 c-0.24 6.88 -0.56 19.96 -0.24 27.04 c0.72 0.12 1.6 0.08 2.48 -0.12 c-0.08 -3 -0.24 -8.16 0.08 -11.44 c0.12 -1.2 1.64 -2.08 2.2 -0.96 c2.04 4.08 3.24 8.28 4.36 11.28 c0.8 -0.08 1.64 -0.2 2.4 -0.48 c0.52 -6.8 0.76 -18.88 0.36 -25.88 z M75.44 9.920000000000002 c0.24 8.04 -0.52 21.8 -1.4 29.52 c-2 1.24 -3.32 1.24 -5.56 1.56 c-1 -2.96 -1.96 -6.44 -3.04 -9.48 c-0.16 3.12 -0.12 7.32 -0.16 10.16 c-2 0.6 -4.12 1.16 -6.32 0.2 c-0.16 -7.84 0.72 -22.48 1.24 -30.12 c1.96 -1.52 3.4 -1.72 5.64 -2.4 c1.04 2.68 2.16 6.12 3.12 9.24 c0.16 -2.72 0.12 -5.64 0.08 -7.68 c2.44 -1.12 4.16 -1.28 6.4 -1 z M81.68 38.28 c0.4 -6.32 0.44 -17.48 -0.08 -26 c-0.96 0.04 -2.12 0.2 -3 0.44 c0.32 6.6 0.52 18.92 0.52 25.72 c0.84 0 1.72 0 2.56 -0.16 z M83.96000000000001 10 c0.32 10.04 -0.24 22.76 -1 30.04 c-2.48 0.76 -3.8 0.72 -6.32 0.72 c0.32 -7.92 0.56 -22.08 0.44 -29.64 c1.92 -0.76 4.4 -1.36 6.88 -1.12 z M95.6 38.96 c0.08 -1.2 -0.04 -2.56 -0.2 -3.72 c-2.88 0.4 -4.44 0 -4.84 -0.56 c-0.28 -0.4 -0.88 -4.48 -0.88 -8.64 c0 -4.12 0.44 -9 1.16 -9.92 c0.84 -1.12 2.68 -1.4 4.64 -1.2 c0.04 -1.12 0.08 -2.48 0 -3.52 c-3.88 -0.52 -5.64 -0.28 -6.28 0.28 c-1.2 1.04 -2.52 10.48 -2.4 14.44 c0.08 3.52 0.96 12.68 2.04 13.2 c0.92 0.44 3.88 0.32 6.76 -0.36 z M97.72 9.120000000000001 c0.2 2.28 0.08 5.16 -0.24 7.8 c-3.4 -0.6 -4.56 -0.08 -4.76 0.2 s-0.92 4.32 -1.08 8.92 c-0.16 3.64 0 6.88 0.24 7.2 c0.28 0.4 1.48 0.36 4.76 -0.36 c0.4 2.64 0.52 5.08 0.12 7.76 c-3.68 1.16 -7.6 1.72 -9.28 0.92 c-1.2 -0.56 -2.6 -11.08 -2.56 -15.16 c0.04 -3.72 1.52 -14.48 3.56 -16.4 c1.52 -1.4 4.48 -1.44 9.24 -0.88 z M106.56 27.16 c0.12 -0.2 0.12 -3.04 -0.12 -5.4 c-0.08 -0.76 -0.48 -0.76 -0.64 -0.08 c-0.48 2.24 -0.88 5.08 -0.56 5.52 c0.2 0.24 1.28 0.04 1.32 -0.04 z M108.32000000000001 28.2 c-0.84 1.36 -3.6 1.44 -4.6 0.16 c-0.64 -0.84 0.16 -7.88 0.56 -9.64 c0.32 -1.36 2.24 -2.68 3.2 -0.48 c0.72 1.68 1.56 8.76 0.84 9.96 z M112.4 38.32 c-0.44 -8.08 -1.56 -20.44 -2.56 -27.04 c-1.96 -0.08 -5.24 0.2 -7.6 0.76 c-0.88 7.92 -1.8 19.76 -2.24 27.04 c1.08 0.16 1.8 0.2 2.8 0.16 c0.08 -1.52 0.12 -3.56 0.52 -5.04 c0.52 -1.88 4.76 -2.28 5.4 -0.36 c0.48 1.4 0.52 3.72 0.48 5.2 c1.08 -0.16 2.16 -0.44 3.2 -0.72 z M113.8 39.88 c-2.64 0.76 -4.48 1.48 -7.32 1.52 c0.24 -2 0.44 -5.32 0 -6.76 c-0.12 -0.4 -1.4 -0.2 -1.56 0.32 c-0.56 1.8 -0.56 4.64 -0.72 6.52 c-2.8 0.32 -3.84 0.32 -6.72 -0.12 c0.76 -8.44 2.24 -21.88 3.56 -31 c3.52 -1.12 8.04 -1.68 10.96 -1.44 c0.92 7.48 1.68 21.52 1.8 30.96 z M124.88000000000001 35.28 c-2.12 0.28 -4.76 0.4 -4.76 0.4 c-0.28 -5.72 -0.48 -18 0.12 -23.84 c-0.92 0 -1.92 0.12 -2.76 0.36 c-0.28 9.12 -0.2 20.76 0.12 27.12 c2.52 -0.04 5.28 -0.44 7.24 -1.12 c0.04 -0.96 0.08 -2.08 0.04 -2.92 z M126.24000000000001 32.92 c0.24 2 0.12 4.48 -0.12 6.72 c-3.04 1.44 -6.88 2.12 -10.88 2.16 c-0.16 -7.32 0.24 -20.48 0.96 -31.08 c2.32 -1.08 4.44 -1.2 6.84 -1.2 c-1 5.88 -1.36 18.36 -1.32 24.16 c0.92 -0.12 2.28 -0.28 4.52 -0.76 z M157.72 11.719999999999999 c-1.04 -0.08 -2.2 -0.08 -3.2 0.2 c-0.08 3.52 -0.52 10.08 -1.12 14.36 c-0.2 1.36 -1.88 0.72 -2.04 0 c-1.08 -4.32 -2.08 -10 -2.96 -12.68 c-0.56 0.04 -1.08 0.16 -1.56 0.32 c-0.4 3.36 -1.24 9.08 -2.48 12.36 c-0.24 0.64 -1.8 1.64 -2.16 0 c-1 -4.84 -1.32 -11.72 -1.52 -15.2 c-0.92 0.08 -1.84 0.4 -2.6 0.84 c0.2 8.8 1.16 20.56 1.96 28 c1.28 0.12 3.08 0.16 4.24 0.04 c0.76 -2.88 2 -10.04 2.6 -14.44 c0.2 -1.4 1.84 -1.16 2.16 0 c1.04 3.6 1.72 9.6 2.28 13.36 c1.16 0 2.96 -0.04 4.2 -0.16 c1.04 -6.64 1.8 -19.16 2.2 -27 z M160.12 9.239999999999998 c-0.76 9.24 -2.04 23.68 -3.52 31.32 c-2.16 0.4 -5.76 0.64 -7.56 0.52 c-0.32 -2.84 -0.68 -6.56 -1.08 -9.72 c-0.8 4 -1.88 8.68 -2.56 10.8 c-2.16 0.56 -5.32 0.52 -7.48 0.28 c-0.64 -8.52 -1.24 -21.52 -1.12 -31.48 c1.72 -1.32 3.72 -2.16 6.48 -1.96 c0 2.96 0.12 8.28 0.48 12.6 c0.68 -2.92 1.36 -6.56 1.72 -9.12 c1.52 -1.04 3.12 -1.2 4.76 -1.2 c0.64 2 1.44 5.36 2.04 8.56 c0.36 -3.44 0.56 -7.28 0.72 -9.84 c2.52 -1.12 4.8 -1 7.12 -0.76 z M168.15999999999997 27.16 c0.12 -0.2 0.12 -3.04 -0.12 -5.4 c-0.08 -0.76 -0.48 -0.76 -0.64 -0.08 c-0.48 2.24 -0.88 5.08 -0.56 5.52 c0.2 0.24 1.28 0.04 1.32 -0.04 z M169.92 28.2 c-0.84 1.36 -3.6 1.44 -4.6 0.16 c-0.64 -0.84 0.16 -7.88 0.56 -9.64 c0.32 -1.36 2.24 -2.68 3.2 -0.48 c0.72 1.68 1.56 8.76 0.84 9.96 z M173.99999999999997 38.32 c-0.44 -8.08 -1.56 -20.44 -2.56 -27.04 c-1.96 -0.08 -5.24 0.2 -7.6 0.76 c-0.88 7.92 -1.8 19.76 -2.24 27.04 c1.08 0.16 1.8 0.2 2.8 0.16 c0.08 -1.52 0.12 -3.56 0.52 -5.04 c0.52 -1.88 4.76 -2.28 5.4 -0.36 c0.48 1.4 0.52 3.72 0.48 5.2 c1.08 -0.16 2.16 -0.44 3.2 -0.72 z M175.39999999999998 39.88 c-2.64 0.76 -4.48 1.48 -7.32 1.52 c0.24 -2 0.44 -5.32 0 -6.76 c-0.12 -0.4 -1.4 -0.2 -1.56 0.32 c-0.56 1.8 -0.56 4.64 -0.72 6.52 c-2.8 0.32 -3.84 0.32 -6.72 -0.12 c0.76 -8.44 2.24 -21.88 3.56 -31 c3.52 -1.12 8.04 -1.68 10.96 -1.44 c0.92 7.48 1.68 21.52 1.8 30.96 z M188.88 11.64 c-0.8 -0.08 -1.76 -0.16 -2.6 -0.16 c-0.32 5.32 -1 13.72 -2.12 19.44 c-0.2 1.04 -2.04 1.08 -2.28 0 c-1 -4.88 -2.08 -14.28 -2.44 -19.96 c-0.92 0 -1.88 0.08 -2.76 0.32 c0.84 8.72 2.56 21.4 3.92 27.52 c2.04 0.56 3.76 0.52 5.64 0.04 c0.24 -6.6 1.72 -19.68 2.64 -27.2 z M191.48 9.399999999999999 c-1.36 8.64 -3.52 23.64 -3.96 31.08 c-3.36 1.16 -5.64 1.4 -9.08 0.36 c-1.32 -6.72 -2.68 -20.92 -3.2 -30.92 c2.36 -1.04 4.36 -1.2 6.68 -1.12 c0.08 4.76 0.56 11.6 1.04 16.56 c0.8 -5.12 1.52 -11.48 1.92 -16.12 c2.2 -0.24 4.56 -0.16 6.6 0.16 z M203.07999999999998 15.16 c0.04 -1 -0.04 -2.32 -0.24 -3.4 c-2.24 0 -5.8 0.16 -8.28 0.44 c-0.44 6.44 -0.8 18.96 -0.32 27.56 c3.32 0.2 6.52 -0.48 8.36 -1.2 c0.08 -0.96 0.04 -1.92 -0.08 -2.8 c-1.52 0.2 -3.88 0.4 -5.32 0.36 c-0.28 -2.2 -0.32 -5.2 -0.04 -7.6 l5.6 -2.04 c0.08 -0.8 0 -1.72 -0.12 -2.48 l-5.76 0.6 c-0.08 -3.24 0.24 -6.04 0.52 -8.44 c1.84 -0.48 4.2 -0.8 5.68 -1 z M205.07999999999998 16.56 c-1.76 0.24 -4.04 0.64 -5.6 1.04 c-0.2 1.36 -0.44 3.12 -0.52 4.72 l5.24 -0.72 c0.52 2 0.56 4.12 0.16 6.2 l-5.52 2.24 c-0.12 1.32 -0.2 3 -0.16 4.24 c1.32 -0.12 3.4 -0.44 5.04 -1 c0.36 2.56 0.48 4.28 0.12 6.76 c-2.68 1.32 -6.88 2.48 -11.92 2.08 c-0.32 -10.04 0.68 -24.44 1.44 -31.8 c3.56 -0.64 8.48 -1.04 11.52 -1.08 c0.56 2.4 0.56 5.08 0.2 7.32 z" fill="#00043C"></path></g></svg>